<?xml version="1.0" standalone="no"?>
<!DOCTYPE svg PUBLIC "-//W3C//DTD SVG 20010904//EN"
 "http://www.w3.org/TR/2001/REC-SVG-20010904/DTD/svg10.dtd">
<svg version="1.0" xmlns="http://www.w3.org/2000/svg"
 width="700.000000pt" height="700.000000pt" viewBox="0 0 700.000000 700.000000"
 preserveAspectRatio="xMidYMid meet">
<metadata>
Created by potrace 1.11, written by Peter Selinger 2001-2013
</metadata>
<g transform="translate(0.000000,700.000000) scale(0.100000,-0.100000)"
fill="#000000" stroke="none">
<path d="M3260 5950 c-30 -4 -79 -10 -107 -14 -186 -21 -453 -98 -653 -187
-127 -57 -336 -175 -425 -241 -468 -345 -789 -800 -941 -1333 -19 -66 -37
-133 -39 -150 -3 -16 -10 -50 -15 -75 -11 -52 -17 -91 -27 -187 -10 -87 -10
-471 0 -543 46 -328 109 -536 247 -815 172 -349 399 -623 713 -864 145 -110
230 -162 412 -251 137 -67 395 -168 395 -155 0 2 17 -2 39 -9 21 -8 74 -21
117 -30 111 -23 115 -23 175 -31 30 -4 65 -10 79 -12 68 -12 453 -10 560 3
959 118 1749 768 2051 1688 22 65 41 128 43 140 2 11 9 39 14 61 10 35 25 119
38 205 29 197 26 559 -7 749 -6 31 -12 70 -15 86 -18 104 -82 314 -135 442
-202 485 -544 892 -978 1163 -87 54 -316 171 -361 185 -14 4 -43 16 -66 26
-101 45 -384 118 -523 134 -30 4 -63 9 -75 12 -34 8 -455 11 -516 3z m580
-134 c149 -24 159 -26 270 -57 92 -25 110 -34 143 -69 44 -46 38 -44 87 -29
34 10 44 8 131 -32 310 -143 602 -365 828 -632 43 -50 48 -62 31 -72 -23 -14
-7 -54 44 -116 97 -115 116 -134 133 -134 26 0 132 -209 198 -390 l24 -66 -22
7 c-12 3 -28 10 -36 14 -8 4 -28 4 -45 -1 -54 -16 -109 -11 -191 15 -132 44
-129 38 -140 227 -8 123 -30 213 -53 214 -4 1 -30 7 -58 14 l-52 12 -4 77 c-3
52 -12 90 -26 117 -23 43 -23 43 -27 -25 -3 -39 -9 -50 -49 -86 l-45 -42 -67
14 c-64 14 -68 13 -89 -6 -12 -11 -29 -20 -39 -20 -33 0 -156 72 -156 91 0 6
20 19 45 30 24 11 46 23 49 28 3 4 -18 21 -46 36 l-51 28 -19 -26 c-11 -15
-49 -41 -86 -57 -104 -49 -109 -68 -34 -151 44 -49 45 -49 59 -29 17 25 26 19
51 -31 11 -23 35 -44 72 -64 49 -27 65 -30 145 -31 90 -1 90 -1 155 43 64 42
65 43 84 24 10 -11 16 -26 13 -34 -10 -26 -69 -64 -145 -95 -63 -25 -83 -29
-140 -25 -37 3 -86 5 -109 4 -34 -1 -52 6 -88 34 -53 40 -102 55 -165 51 -77
-6 -130 36 -181 145 -22 47 -36 66 -46 62 -10 -4 -12 -14 -8 -32 7 -25 12 -50
19 -96 2 -11 -1 -31 -6 -44 l-9 -24 -34 33 c-30 29 -35 31 -41 16 -3 -9 -4
-34 0 -55 5 -35 2 -41 -39 -80 l-45 -43 16 -31 c32 -61 54 -85 87 -92 46 -10
60 -24 45 -42 -28 -34 -101 -74 -153 -85 -48 -9 -61 -8 -96 7 -29 13 -38 23
-34 34 17 43 17 71 1 77 -9 3 -23 1 -31 -6 -13 -11 -20 -9 -43 13 -30 29 -78
43 -114 33 -32 -8 -78 -53 -78 -76 0 -11 33 -47 82 -89 79 -68 89 -73 218
-115 74 -24 158 -47 185 -50 28 -4 75 -11 105 -16 30 -5 70 -12 89 -15 42 -7
51 -12 51 -29 0 -23 -48 -47 -88 -44 -33 3 -37 0 -40 -23 -2 -14 6 -37 18 -52
17 -22 30 -27 63 -27 24 0 54 -8 70 -18 33 -22 97 -120 90 -139 -15 -40 -274
28 -361 95 -27 21 -46 26 -98 28 -98 3 -116 10 -112 42 3 25 -1 27 -55 39 -75
17 -121 7 -124 -28 0 -13 -1 -32 -2 -41 -1 -11 -9 -18 -21 -18 -21 0 -34 32
-28 66 2 14 -6 22 -32 30 -34 12 -36 11 -65 -23 l-30 -35 -75 7 c-41 4 -76 8
-79 10 -2 2 -24 -4 -50 -14 -25 -10 -60 -22 -77 -25 -31 -7 -33 -5 -50 41 -9
26 -21 52 -25 57 -7 8 -60 20 -134 32 -16 3 -36 7 -44 10 -8 2 -25 -3 -38 -12
-14 -8 -27 -14 -29 -11 -3 2 -6 29 -8 60 -3 37 -11 65 -27 86 -19 26 -21 34
-11 55 6 14 29 37 52 51 46 29 48 37 17 74 -21 25 -24 46 -18 116 2 21 55 35
92 25 31 -9 45 -6 88 14 41 18 59 22 92 16 34 -6 45 -4 67 15 15 12 48 34 74
49 57 33 65 43 46 62 -12 13 -19 11 -52 -11 -20 -14 -42 -25 -48 -25 -6 0 -30
18 -54 40 -49 45 -71 50 -76 18 -2 -12 -18 -33 -37 -45 l-35 -23 -28 30 c-18
20 -34 29 -46 26 -9 -3 -32 -8 -50 -11 -59 -10 -35 25 38 56 35 15 66 32 68
37 4 13 -33 34 -56 31 -36 -3 -52 2 -61 20 -8 15 -6 25 11 46 18 23 19 31 9
47 -17 28 3 51 39 43 32 -7 74 30 51 45 -8 4 -20 6 -28 3 -8 -3 -22 2 -33 12
-18 16 -21 16 -65 -5 -33 -16 -59 -41 -97 -94 -50 -70 -53 -73 -95 -73 -38 -1
-47 3 -69 33 -15 19 -32 34 -39 34 -7 0 -43 -25 -81 -55 -38 -30 -74 -55 -80
-55 -14 0 -21 36 -14 72 4 21 19 34 68 58 34 18 62 35 62 40 0 10 -43 23 -133
42 -54 11 -61 11 -102 -11 -23 -12 -68 -45 -98 -72 -31 -27 -94 -68 -144 -91
-73 -35 -101 -43 -161 -46 l-74 -4 -59 61 c-32 34 -59 68 -59 76 0 7 13 23 29
34 26 19 29 25 24 61 -7 53 38 124 104 164 26 16 72 50 101 74 45 38 51 47 37
54 -11 7 -24 4 -42 -9 -67 -47 -77 -52 -84 -41 -11 17 14 60 54 95 19 16 37
41 40 54 4 15 22 34 47 48 27 15 42 32 48 53 12 46 198 160 445 272 42 19 77
32 77 29 0 -3 6 -1 13 5 28 23 331 106 432 118 28 4 52 8 56 10 3 1 39 6 80
10 40 3 76 8 78 10 11 10 438 -6 521 -20z m-1110 -1156 c0 -5 -25 -28 -55 -51
-53 -40 -83 -46 -86 -17 -1 7 -3 23 -4 36 -2 17 4 24 24 28 14 3 31 7 36 9 23
8 85 4 85 -5z m-346 -212 c3 -13 7 -48 9 -78 3 -30 10 -94 18 -142 l13 -86
-37 -45 c-20 -25 -37 -48 -37 -51 0 -16 28 -3 60 27 19 18 47 41 61 51 25 16
28 16 43 0 15 -15 15 -18 1 -33 -19 -22 -19 -40 0 -61 8 -9 18 -30 21 -47 5
-26 2 -34 -20 -48 -33 -22 -69 -13 -108 26 -16 16 -31 29 -33 29 -2 0 -8 -13
-13 -30 -6 -16 -22 -35 -35 -41 -13 -6 -32 -24 -41 -40 -20 -34 -32 -34 -60 4
-13 18 -21 47 -23 89 -3 47 -10 72 -28 97 l-24 35 29 20 c16 12 32 27 34 34 6
15 -3 42 -15 42 -10 0 -116 -88 -179 -147 -24 -24 -49 -43 -55 -43 -6 0 -26
31 -44 68 -18 37 -41 79 -51 92 l-18 23 -12 -23 c-7 -12 -13 -61 -15 -109 -2
-47 -6 -99 -9 -114 -5 -20 2 -43 25 -85 58 -107 152 -262 172 -283 20 -22 91
-69 167 -112 45 -25 64 -54 50 -76 -8 -14 -63 10 -138 61 -56 38 -76 60 -191
208 -121 154 -181 242 -181 264 0 9 -16 32 -36 50 -20 19 -51 60 -68 92 -26
50 -35 59 -58 59 -35 1 -48 13 -58 60 -8 36 -7 37 27 52 20 8 53 15 74 15 47
0 75 28 71 68 -4 31 15 73 47 107 25 26 38 25 179 -10 l87 -22 3 -39 c3 -37
34 -96 50 -96 4 0 39 30 77 66 86 81 104 93 174 121 73 28 90 28 95 1z m2678
-46 c3 -9 -1 -33 -7 -52 -10 -29 -17 -34 -36 -32 -25 3 -51 3 -84 0 -18 -1
-76 19 -115 41 -8 4 -15 17 -15 27 0 17 9 19 70 22 39 1 73 3 78 5 4 1 29 3
56 4 39 2 50 -1 53 -15z m-810 -57 c-14 -31 -26 -32 -40 -1 -8 18 -7 27 6 40
14 14 18 14 31 1 12 -11 12 -19 3 -40z m-1662 -20 c10 -12 10 -18 0 -30 -16
-20 -27 -19 -32 3 -10 37 10 54 32 27z m2282 -99 c178 -91 224 -120 231 -145
8 -33 -6 -43 -88 -58 -40 -7 -70 -8 -135 -3 -19 2 -90 -1 -157 -5 -133 -8
-153 -3 -153 41 0 24 13 31 75 36 27 3 30 7 30 37 0 27 5 36 25 44 14 5 36 13
49 18 l23 10 -26 20 c-32 25 -33 37 -3 48 26 10 22 11 129 -43z m-2245 -56
c72 -79 78 -89 61 -107 -21 -21 -51 -23 -64 -4 -17 24 -84 148 -84 155 0 3 9
6 20 6 12 0 41 -21 67 -50z m511 -329 c8 -4 12 -19 10 -32 -2 -19 -9 -24 -33
-24 -24 0 -30 4 -31 23 -1 12 6 27 15 32 20 12 23 12 39 1z m2102 -85 c0 -7
-17 -36 -37 -65 -38 -51 -75 -69 -128 -62 -28 3 -75 22 -75 30 1 9 89 63 145
87 58 26 95 30 95 10z m-1310 -33 c0 -16 -10 -16 -32 1 -28 21 -23 38 7 24 14
-6 25 -17 25 -25z m154 -9 c21 -20 20 -26 -4 -57 -26 -32 -26 -32 12 -66 44
-40 31 -51 -60 -51 -95 0 -110 8 -88 42 9 14 14 32 10 41 -3 10 6 35 22 62 25
38 34 45 61 45 17 0 39 -7 47 -16z m1394 -1 c5 -10 10 -40 11 -67 1 -28 8 -79
15 -114 13 -57 12 -64 -3 -69 -9 -4 -18 -9 -21 -12 -3 -3 -27 -14 -54 -24
l-49 -17 -29 34 c-20 24 -41 36 -69 41 -21 4 -39 10 -39 14 0 4 27 20 61 37
57 27 63 33 96 99 51 101 63 113 81 78z m-607 -40 c13 -21 31 -44 41 -51 21
-16 24 -32 4 -32 -8 0 -45 -16 -84 -36 -66 -34 -71 -35 -98 -21 -27 14 -30 13
-63 -11 -32 -25 -35 -26 -45 -8 -32 53 -32 53 -67 27 l-32 -24 -19 23 c-22 28
-17 35 65 93 47 33 77 46 141 59 124 25 131 24 157 -19z m-646 -56 c49 -27 59
-57 20 -57 -50 0 -103 43 -83 67 14 17 16 17 63 -10z m1382 15 c24 -15 19 -69
-7 -77 -26 -8 -50 11 -50 39 0 36 29 56 57 38z m230 -214 c-4 -90 -9 -174 -11
-188 -2 -14 -7 -47 -11 -73 -4 -27 -8 -56 -10 -65 -35 -172 -58 -256 -101
-377 -102 -282 -248 -530 -444 -755 -70 -80 -81 -92 -183 -187 -335 -312 -776
-521 -1242 -588 -22 -4 -51 -9 -65 -11 -46 -10 -424 -12 -498 -4 -204 24 -364
58 -361 77 3 19 -3 31 -36 68 -19 22 -35 46 -35 52 0 15 32 23 80 22 19 -1 55
6 80 15 44 17 45 17 62 -4 17 -21 17 -23 -4 -51 -12 -16 -19 -31 -16 -34 3 -4
40 1 82 9 93 20 124 20 169 1 33 -13 37 -13 62 7 l27 21 54 -23 c30 -12 57
-20 59 -18 3 2 -13 22 -35 43 -37 36 -44 39 -100 40 -50 1 -67 6 -105 33 -44
31 -47 32 -76 16 -36 -18 -60 -5 -53 29 5 30 27 48 122 103 l83 47 64 -9 c82
-13 99 -4 90 42 -4 26 -2 36 9 40 27 10 109 -28 206 -96 52 -37 126 -83 163
-104 61 -32 70 -35 83 -21 9 8 19 15 24 15 16 0 28 -34 20 -55 -8 -22 14 -55
37 -55 14 0 17 9 14 52 -1 22 6 29 44 45 25 10 45 21 45 24 0 3 -9 16 -20 29
-20 23 -24 34 -21 58 2 12 -42 75 -78 112 -12 12 -7 16 39 26 29 6 82 27 117
45 54 28 63 37 59 54 -7 29 24 46 198 105 86 29 203 80 288 124 79 41 157 77
173 80 21 5 36 18 50 42 20 37 28 42 127 87 45 21 63 25 83 17 22 -8 28 -5 55
35 17 25 35 45 40 45 17 0 255 143 279 168 44 45 170 219 185 257 5 11 12 38
16 60 4 22 19 78 32 125 43 145 43 152 -4 199 -40 39 -40 41 -28 72 8 17 34
59 58 93 l45 61 -2 92 c-1 66 2 93 10 93 9 0 10 -41 6 -162z m-670 16 c8 -21
-13 -42 -28 -27 -13 13 -5 43 11 43 6 0 13 -7 17 -16z m-902 -49 c70 -44 89
-47 128 -20 47 31 60 34 78 18 16 -13 15 -19 -1 -74 -10 -33 -24 -67 -31 -75
-11 -14 -10 -38 10 -117 l9 -38 -50 -27 c-66 -35 -95 -59 -86 -68 5 -4 19 -2
33 4 23 11 27 9 50 -29 30 -46 49 -57 71 -38 11 9 14 22 10 44 -9 45 16 66 45
39 15 -14 18 -25 13 -48 -7 -32 -31 -76 -49 -88 -17 -12 21 -42 56 -44 18 -1
51 -5 74 -8 34 -6 45 -3 60 13 17 20 17 23 -5 82 -13 36 -20 73 -17 88 7 36
-19 54 -62 41 -20 -6 -33 -5 -40 4 -39 47 -26 110 17 87 20 -10 23 -9 31 11 6
16 3 34 -8 57 -15 32 -15 34 8 52 17 14 32 18 56 13 19 -3 43 -1 55 6 34 18
39 0 23 -96 l-13 -86 36 -68 c19 -37 46 -78 59 -90 l23 -21 41 20 c54 28 62
27 89 -15 19 -28 28 -35 45 -30 12 3 31 9 42 12 37 9 59 -19 61 -77 2 -64 -9
-90 -47 -113 -33 -19 -43 -36 -54 -84 -4 -21 -2 -38 5 -47 10 -12 17 -12 49 5
71 36 172 63 184 51 9 -9 -7 -30 -68 -86 -44 -41 -87 -74 -96 -75 -9 0 -24 8
-33 19 -11 13 -28 18 -51 16 -33 -2 -54 -18 -150 -108 -29 -28 -100 -58 -119
-51 -20 8 -20 28 0 90 23 66 49 102 89 118 57 24 101 113 72 143 -4 4 -22 8
-39 9 -17 2 -42 5 -55 9 l-24 6 21 34 c20 33 20 35 3 34 -10 0 -38 -10 -63
-22 -53 -26 -58 -47 -37 -149 7 -36 10 -75 6 -85 -12 -32 -70 -53 -157 -56
l-80 -4 -43 66 c-27 43 -41 77 -41 96 1 17 -3 37 -8 45 -16 25 -58 -7 -107
-80 -41 -61 -66 -125 -76 -195 -14 -94 -18 -104 -46 -107 -21 -2 -27 -9 -29
-35 -4 -37 -19 -45 -62 -33 -24 7 -32 6 -37 -6 -3 -9 -1 -20 5 -26 8 -8 2 -27
-20 -69 l-31 -58 -59 51 -59 51 -36 -17 c-29 -14 -33 -19 -23 -31 7 -8 27 -17
46 -21 19 -3 34 -12 34 -20 0 -8 -3 -14 -7 -15 -46 -4 -73 -11 -109 -30 -40
-22 -43 -22 -68 -6 -24 16 -26 16 -36 -3 -8 -14 -8 -26 0 -41 14 -25 11 -28
-32 -35 -24 -4 -53 2 -98 21 l-65 27 -35 -41 c-38 -44 -54 -50 -64 -25 -8 21
6 44 53 87 35 31 44 35 79 30 l41 -5 34 68 c26 52 43 73 68 85 l34 16 -33 17
c-17 9 -32 21 -32 27 0 6 14 30 31 55 32 46 29 53 -21 52 -64 -1 -61 10 13 67
26 20 47 40 47 46 0 5 -16 35 -35 65 -29 44 -46 60 -88 78 -64 29 -113 38
-195 37 -49 0 -67 4 -82 19 -39 39 -16 64 83 90 78 21 79 21 110 1 28 -17 35
-18 58 -6 28 15 59 56 59 79 0 7 14 29 31 47 29 31 32 32 44 16 7 -10 11 -26
8 -36 -8 -32 20 -43 63 -25 l39 16 26 -32 27 -32 12 22 c10 19 9 27 -10 52
-12 16 -19 32 -16 35 3 4 -6 22 -21 41 l-26 35 39 36 c27 24 47 56 63 99 19
54 28 66 57 78 22 9 45 31 62 59 15 25 30 45 34 45 4 0 17 -13 30 -30 21 -29
22 -29 41 -13 16 15 18 27 13 85 l-7 67 33 3 c61 7 73 4 123 -27z m1390 6 c15
-47 -33 -93 -112 -107 -12 -2 -33 -8 -45 -13 -30 -11 -48 -4 -48 19 0 23 17
36 67 54 23 8 58 26 79 40 47 30 51 31 59 7z m-3307 -34 c21 -31 28 -57 17
-57 -12 0 -84 40 -90 50 -9 14 13 40 34 40 9 0 26 -15 39 -33z m2697 -74 c-4
-46 -35 -93 -62 -93 -11 0 -18 19 -14 43 1 4 4 24 7 45 10 60 20 73 48 61 21
-10 23 -17 21 -56z m122 -79 c3 -25 -53 -92 -67 -78 -6 6 -6 22 1 47 14 53 61
75 66 31z m572 -93 c10 -7 11 -13 1 -30 -13 -25 -127 -168 -160 -201 -45 -45
-53 20 -9 71 12 13 37 44 57 69 48 60 84 100 91 100 3 0 12 -4 20 -9z m-2424
-131 c7 -12 -12 -40 -26 -40 -10 0 -12 34 -2 43 9 10 21 9 28 -3z m-419 -51
c53 -26 57 -52 7 -57 -29 -3 -93 21 -93 34 0 13 22 44 30 44 6 0 31 -10 56
-21z m316 -61 c44 -35 41 -58 -8 -58 -32 0 -34 -2 -34 -33 0 -38 -30 -73 -55
-64 -10 5 -15 21 -16 54 0 26 -4 70 -8 96 -13 79 26 80 121 5z m2062 -14 c20
-8 21 -30 2 -37 -13 -5 -46 21 -46 36 0 9 23 9 44 1z m-3504 -141 c15 -41 17
-59 9 -79 -11 -30 11 -114 36 -134 13 -11 61 -18 163 -23 30 -2 36 -7 47 -40
7 -20 24 -52 39 -71 31 -42 34 -81 6 -89 -29 -7 -48 12 -83 83 -28 57 -35 65
-57 61 -44 -6 -74 -6 -127 2 l-53 8 -69 97 c-83 118 -109 163 -103 180 4 13
90 60 132 72 29 8 33 4 60 -67z m3705 45 c-10 -32 -34 -68 -45 -68 -9 0 -30
32 -30 44 0 8 62 46 73 46 5 0 5 -10 2 -22z m-2099 -273 c35 -25 64 -52 64
-60 0 -8 -10 -26 -23 -41 l-23 -27 -77 43 c-70 38 -107 70 -107 92 0 14 62 46
82 43 10 -2 48 -25 84 -50z m-262 -26 c22 -37 16 -44 -29 -40 -52 4 -75 -7
-91 -45 -16 -37 -33 -37 -58 1 -19 29 -9 43 67 89 65 38 86 38 111 -5z m1296
-99 c19 -5 41 -18 47 -29 11 -17 9 -23 -13 -40 -47 -37 -105 -37 -110 0 -1 5
-2 14 -3 20 -1 7 -13 9 -36 5 -45 -9 -46 8 -2 34 36 22 65 25 117 10z m-1146
-66 c20 -20 20 -27 -2 -54 -17 -21 -19 -21 -55 -7 -39 17 -40 26 -9 74 15 24
33 21 66 -13z m1340 17 c3 -4 0 -16 -8 -26 -10 -14 -16 -16 -34 -6 -12 6 -22
16 -22 21 0 17 54 27 64 11z m-2105 -28 c14 -9 42 -34 61 -55 22 -24 41 -37
50 -33 16 5 76 13 121 14 14 1 47 17 72 36 52 40 72 43 107 16 24 -19 25 -19
48 -1 26 21 48 17 63 -11 8 -16 4 -25 -20 -49 -16 -17 -40 -30 -53 -31 -13 0
-32 -2 -43 -4 -69 -13 -166 -20 -277 -18 -124 1 -127 1 -115 -18 7 -11 22 -22
34 -25 40 -11 40 -78 -1 -94 -28 -10 -60 3 -96 40 -34 34 -160 200 -160 209 0
3 15 16 33 29 28 20 40 23 91 18 33 -3 71 -14 85 -23z m-322 -21 c12 -8 18
-31 15 -64 -1 -9 -15 -21 -31 -26 -28 -10 -29 -9 -36 25 -5 26 -2 40 11 54 19
21 23 22 41 11z m2033 -222 c0 -23 -28 -34 -46 -19 -17 14 -18 36 -1 42 22 7
47 -5 47 -23z m-463 -115 c12 -8 27 -31 33 -51 7 -20 23 -52 36 -72 47 -69 29
-69 -139 2 -44 18 -44 31 1 98 27 42 37 45 69 23z m-1497 -38 c36 -18 57 -40
108 -116 74 -112 78 -136 25 -145 -80 -13 -122 -1 -94 27 16 16 13 37 -6 37
-23 0 -80 46 -97 79 -19 36 -25 91 -13 119 12 27 20 27 77 -1z"/>
<path d="M4556 5413 c-16 -16 -2 -45 38 -77 23 -20 46 -36 50 -36 4 0 27 -13
51 -30 51 -35 64 -37 93 -10 12 11 25 20 30 20 12 0 112 -67 132 -89 8 -9 32
-40 54 -68 39 -55 55 -66 54 -35 -1 9 2 31 6 48 6 25 1 38 -31 80 -52 68 -49
66 -133 108 -68 33 -82 36 -133 32 -50 -4 -68 0 -131 29 -41 19 -77 31 -80 28z"/>
<path d="M4467 5309 c-28 -16 -20 -36 25 -63 31 -18 46 -22 55 -14 10 8 9 15
-8 36 -31 40 -52 52 -72 41z"/>
<path d="M4253 5279 c-15 -11 -34 -17 -42 -14 -17 7 -88 -12 -97 -26 -3 -6 11
-26 31 -45 28 -26 46 -34 69 -32 19 1 47 -8 71 -24 22 -14 61 -37 86 -51 26
-15 58 -39 71 -54 37 -44 89 -84 100 -77 17 11 -1 65 -42 129 -22 34 -40 67
-40 73 0 22 -120 125 -157 134 -12 3 -33 -2 -50 -13z"/>
<path d="M4759 5134 c-8 -23 -4 -36 31 -94 22 -36 40 -76 40 -89 0 -48 46
-100 88 -101 40 0 33 84 -15 178 -64 124 -121 166 -144 106z"/>
<path d="M2675 5020 c-3 -5 -33 -17 -65 -26 -33 -9 -60 -22 -60 -29 0 -15 42
-55 59 -55 6 0 30 9 52 20 47 24 69 61 49 85 -14 17 -26 19 -35 5z"/>
<path d="M3432 5018 c-13 -13 -16 -56 -6 -82 8 -22 27 -20 49 4 17 19 18 22 2
55 -18 38 -26 42 -45 23z"/>
<path d="M3779 5014 c-11 -14 -10 -19 11 -34 59 -44 76 -50 96 -35 18 15 17
17 -20 50 -43 38 -67 43 -87 19z"/>
<path d="M3323 4932 c-11 -9 -28 -32 -38 -50 -12 -25 -21 -32 -33 -27 -40 17
-50 14 -96 -21 -44 -35 -46 -39 -30 -51 10 -7 23 -12 29 -10 44 17 55 18 55 3
0 -22 28 -46 53 -46 47 1 115 86 97 120 -5 10 -7 33 -3 52 6 42 -5 52 -34 30z"/>
<path d="M2755 4914 c-51 -18 -82 -52 -63 -70 23 -22 42 -20 85 11 28 20 43
38 43 53 0 25 -9 26 -65 6z"/>
<path d="M3797 4904 c-18 -19 -3 -44 43 -74 46 -29 53 -31 80 -20 30 12 47 41
35 61 -14 22 -141 49 -158 33z"/>
<path d="M5480 4606 c0 -3 4 -16 10 -30 10 -26 27 -27 58 -3 11 8 9 13 -10 23
-22 13 -58 19 -58 10z"/>
<path d="M5543 4482 c-6 -4 -22 -25 -37 -46 -41 -61 -32 -104 20 -98 13 2 36
-9 57 -27 19 -17 37 -31 40 -31 3 0 10 13 15 29 9 26 5 37 -37 104 -27 44 -52
73 -58 69z"/>
<path d="M4335 1480 c-39 -10 -90 -26 -115 -35 -47 -16 -140 -75 -140 -87 0
-37 203 17 298 79 82 55 66 71 -43 43z"/>
<path d="M3584 1438 c-3 -5 4 -20 16 -33 19 -20 31 -24 69 -21 25 2 57 4 70 5
22 1 23 2 8 19 -9 10 -31 19 -48 20 -18 1 -49 6 -70 11 -24 6 -41 5 -45 -1z"/>
<path d="M3604 1346 c-10 -27 3 -45 43 -55 41 -11 111 -7 125 7 17 17 -18 41
-72 47 -30 3 -63 8 -73 11 -10 3 -20 -1 -23 -10z"/>
<path d="M4227 3305 c-21 -7 -41 -15 -44 -18 -2 -3 13 -16 35 -28 l40 -23 -30
-38 c-28 -36 -29 -40 -15 -62 20 -29 143 -72 162 -56 30 25 28 68 -5 139 -25
53 -40 72 -67 85 -18 9 -35 16 -36 16 -1 -1 -19 -7 -40 -15z"/>
<path d="M3955 2915 c-18 -14 -18 -18 -5 -63 21 -70 20 -151 -2 -190 -10 -18
-18 -37 -18 -42 0 -17 32 -19 61 -5 38 20 60 55 57 93 -2 30 14 72 39 103 22
26 5 52 -28 45 -21 -4 -29 -2 -29 9 0 27 -23 65 -39 65 -9 0 -25 -7 -36 -15z"/>
<path d="M4348 2855 c-51 -27 -54 -42 -13 -69 22 -14 27 -14 69 10 50 28 56
42 28 67 -24 21 -27 21 -84 -8z"/>
<path d="M4202 2845 c-24 -51 -10 -72 22 -36 11 13 15 27 11 40 -9 28 -19 26
-33 -4z"/>
<path d="M4223 2748 c-45 -51 -77 -151 -50 -161 17 -6 41 18 81 79 23 35 25
44 15 72 -13 38 -19 39 -46 10z"/>
<path d="M4522 2714 c-47 -40 -54 -64 -19 -64 12 0 29 -4 36 -9 9 -6 22 -6 34
0 12 7 22 7 31 0 10 -8 19 -7 36 7 29 24 17 49 -38 79 l-39 23 -41 -36z"/>
<path d="M4983 2737 c-17 -9 -19 -16 -12 -29 12 -21 35 -14 42 13 7 25 -3 30
-30 16z"/>
<path d="M3642 2718 c-17 -17 -15 -23 13 -36 41 -19 58 -16 45 8 -15 28 -44
42 -58 28z"/>
<path d="M3969 2535 c-8 -10 -35 -39 -60 -66 -30 -31 -49 -62 -53 -84 -8 -39
-16 -42 -51 -19 -23 15 -27 15 -49 0 -22 -14 -23 -19 -15 -49 5 -19 8 -44 7
-57 -2 -16 6 -27 32 -41 43 -24 78 -24 110 -2 13 10 55 32 91 49 109 52 130
86 89 144 -15 21 -26 27 -43 23 -18 -5 -20 -3 -9 8 18 19 15 36 -12 75 -22 32
-25 34 -37 19z"/>
<path d="M3727 2143 c-12 -12 -7 -40 9 -54 14 -11 18 -10 30 5 22 30 -14 75
-39 49z"/>
</g>
</svg>
